<?xml version="1.0" standalone="no"?>
<!DOCTYPE svg PUBLIC "-//W3C//DTD SVG 20010904//EN"
 "http://www.w3.org/TR/2001/REC-SVG-20010904/DTD/svg10.dtd">
<svg version="1.0" xmlns="http://www.w3.org/2000/svg"
 width="1024.000000pt" height="768.000000pt" viewBox="0 0 1024.000000 768.000000"
 preserveAspectRatio="xMidYMid meet">

<g transform="translate(0.000000,768.000000) scale(0.100000,-0.100000)"
fill="#000000" stroke="none">
<path d="M917 3873 c-4 -3 -7 -147 -7 -320 l0 -313 200 0 200 0 0 55 0 55
-135 0 -135 0 0 265 0 265 -58 0 c-32 0 -62 -3 -65 -7z"/>
<path d="M1397 3873 c-4 -3 -7 -147 -7 -320 l0 -313 65 0 65 0 0 320 0 320
-58 0 c-32 0 -62 -3 -65 -7z"/>
<path d="M1627 3873 c-4 -3 -7 -147 -7 -320 l0 -313 65 0 65 0 0 93 c0 89 1
93 33 131 l33 38 87 -131 87 -131 75 0 75 0 -116 175 -117 174 112 139 c61 77
111 142 111 146 0 3 -33 6 -72 6 l-73 0 -115 -147 -115 -146 -3 147 -3 146
-58 0 c-32 0 -61 -3 -64 -7z"/>
<path d="M2207 3874 c-4 -4 -7 -148 -7 -321 l0 -313 210 0 210 0 0 55 0 55
-145 0 -145 0 0 80 0 80 135 0 135 0 0 50 0 50 -135 0 -135 0 0 80 0 80 146 0
145 0 -3 53 -3 52 -201 3 c-110 1 -203 -1 -207 -4z"/>
<path d="M2999 3573 c-56 -170 -104 -314 -107 -320 -3 -10 14 -13 65 -13 l70
0 22 75 23 76 111 -3 112 -3 25 -72 25 -73 68 0 c51 0 68 3 65 13 -3 6 -51
150 -109 319 l-104 308 -82 0 -81 0 -103 -307z m226 45 c19 -61 35 -115 35
-120 0 -4 -34 -8 -75 -8 -44 0 -75 4 -75 10 0 15 70 230 75 230 2 0 20 -50 40
-112z"/>
<path d="M3757 3873 c-4 -3 -7 -147 -7 -320 l0 -313 200 0 200 0 0 55 0 55
-135 0 -135 0 0 265 0 265 -58 0 c-32 0 -62 -3 -65 -7z"/>
<path d="M4309 3573 c-56 -170 -104 -314 -107 -320 -3 -10 14 -13 65 -13 l70
0 22 75 23 76 111 -3 112 -3 25 -72 25 -73 68 0 c51 0 68 3 65 13 -3 6 -51
150 -109 319 l-104 308 -82 0 -81 0 -103 -307z m226 45 c19 -61 35 -115 35
-120 0 -4 -34 -8 -75 -8 -44 0 -75 4 -75 10 0 15 70 230 75 230 2 0 20 -50 40
-112z"/>
<path d="M4858 3874 c-5 -4 -8 -149 -8 -321 l0 -315 173 4 c156 3 176 5 215
26 72 38 106 118 82 195 -14 49 -58 93 -102 102 l-31 7 29 13 c17 7 42 27 57
44 35 42 38 118 7 169 -36 59 -92 76 -265 80 -82 2 -153 0 -157 -4z m288 -127
c20 -17 27 -33 27 -57 0 -55 -38 -80 -124 -80 l-69 0 0 80 0 80 69 0 c59 0 74
-4 97 -23z m3 -242 c39 -20 57 -66 42 -104 -17 -39 -49 -51 -136 -51 l-75 0 0
85 0 85 70 0 c43 0 82 -6 99 -15z"/>
<path d="M5587 3866 c-119 -43 -179 -142 -181 -301 -1 -110 19 -175 75 -238
57 -66 116 -91 209 -91 93 0 152 25 209 91 55 62 76 127 75 240 0 84 -2 96
-34 159 -38 75 -95 126 -158 144 -51 14 -149 12 -195 -4z m170 -115 c63 -29
88 -82 88 -191 0 -100 -20 -152 -74 -187 -73 -49 -175 -20 -216 62 -31 62 -28
195 5 254 43 76 115 99 197 62z"/>
<path d="M6078 3874 c-5 -4 -8 -148 -8 -321 l0 -313 65 0 65 0 0 115 0 115 49
0 50 0 58 -115 58 -115 73 0 73 0 -37 68 c-20 37 -50 91 -67 120 l-29 54 36
30 c62 51 84 121 65 210 -13 58 -47 101 -103 130 -35 19 -62 22 -191 26 -82 2
-153 1 -157 -4z m298 -135 c36 -37 36 -101 0 -137 -23 -23 -36 -27 -101 -30
l-75 -4 0 102 0 102 75 -4 c64 -3 79 -7 101 -29z"/>
<path d="M6709 3573 c-56 -170 -104 -314 -107 -320 -3 -10 14 -13 65 -13 l70
0 22 75 23 76 111 -3 112 -3 25 -72 25 -73 68 0 c51 0 68 3 65 13 -3 6 -51
150 -109 319 l-104 308 -82 0 -81 0 -103 -307z m226 45 c19 -61 35 -115 35
-120 0 -4 -34 -8 -75 -8 -44 0 -75 4 -75 10 0 15 70 230 75 230 2 0 20 -50 40
-112z"/>
<path d="M7240 3825 l0 -55 95 0 95 0 0 -265 0 -265 60 0 60 0 2 263 3 262 93
3 92 3 0 54 0 55 -250 0 -250 0 0 -55z"/>
<path d="M7997 3866 c-119 -43 -179 -142 -181 -301 -1 -110 19 -175 75 -238
57 -66 116 -91 209 -91 93 0 152 25 209 91 55 62 76 127 75 240 0 84 -2 96
-34 159 -38 75 -95 126 -158 144 -51 14 -149 12 -195 -4z m170 -115 c63 -29
88 -82 88 -191 0 -100 -20 -152 -74 -187 -73 -49 -175 -20 -216 62 -31 62 -28
195 5 254 43 76 115 99 197 62z"/>
<path d="M8488 3874 c-5 -4 -8 -148 -8 -321 l0 -313 65 0 65 0 0 115 0 115 49
0 50 0 58 -115 58 -115 73 0 73 0 -37 68 c-20 37 -50 91 -67 120 l-29 54 36
30 c62 51 84 121 65 210 -13 58 -47 101 -103 130 -35 19 -62 22 -191 26 -82 2
-153 1 -157 -4z m298 -135 c36 -37 36 -101 0 -137 -23 -23 -36 -27 -101 -30
l-75 -4 0 102 0 102 75 -4 c64 -3 79 -7 101 -29z"/>
<path d="M9004 3865 c3 -8 53 -101 111 -205 l105 -191 0 -114 0 -115 65 0 65
0 0 116 0 117 110 198 c61 110 110 201 110 204 0 3 -31 5 -70 5 l-70 0 -70
-140 c-39 -77 -72 -140 -75 -140 -3 0 -36 63 -75 140 l-70 140 -71 0 c-59 0
-70 -3 -65 -15z"/>
</g>
</svg>
